<svg width="92" height="92" viewBox="0 0 92 92" fill="none" xmlns="http://www.w3.org/2000/svg">
<rect width="92" height="92" fill="#FFFFFF"/>
<path d="M45.56 91.12C70.722 91.12 91.1199 70.7221 91.1199 45.56C91.1199 20.3979 70.722 0 45.56 0C20.3979 0 0 20.3979 0 45.56C0 70.7221 20.3979 91.12 45.56 91.12Z" fill="#1499C3"/>
<path d="M44.557 50.2857C52.1905 50.2857 58.3787 44.0974 58.3787 36.4639C58.3787 28.8303 52.1905 22.6421 44.557 22.6421C36.9234 22.6421 30.7352 28.8303 30.7352 36.4639C30.7352 44.0974 36.9234 50.2857 44.557 50.2857Z" fill="#9E616A"/>
<path d="M79.1535 75.6412C71.2604 84.6224 60.152 90.1394 48.2264 91.0013C36.3008 91.8631 24.5146 88.0007 15.4121 80.2478L19.3199 69.3438C20.203 67.4071 21.5966 65.7473 23.3512 64.5424C25.1059 63.3375 27.1555 62.6329 29.2801 62.5042L31.7661 62.3516L37.6941 57.2389C37.6941 57.2389 53.6666 56.6686 53.4296 56.3955L63.1047 62.215L63.0967 62.1749L66.9 62.4078C69.0248 62.5359 71.0746 63.2403 72.8294 64.4453C74.5841 65.6503 75.9776 67.3104 76.8602 69.2474L79.1535 75.6412Z" fill="#093F58"/>
<path d="M31.9984 42.8543C31.9712 42.7787 31.9464 42.7022 31.9196 42.6265C31.8664 42.6733 31.8154 42.7217 31.7577 42.7655L31.9984 42.8543Z" fill="#2F2E41"/>
<path d="M61.1141 31.5468C61.0432 30.1444 60.6758 28.7729 60.0362 27.5227C59.3966 26.2726 58.4993 25.1721 57.4035 24.294C56.5979 23.657 55.6661 23.119 55.1328 22.2414C54.8287 21.62 54.5709 20.9771 54.3615 20.3178C53.3004 17.7923 50.2765 16.45 47.5639 16.8324C44.8514 17.2149 42.5039 19.0395 40.9227 21.2764C40.1436 20.9031 39.2739 20.7609 38.4165 20.8666C37.5591 20.9723 36.7499 21.3214 36.0848 21.8727C35.4197 22.424 34.9265 23.1543 34.6636 23.9772C34.4007 24.8001 34.3791 25.6811 34.6013 26.5159C33.1967 25.3843 30.9245 26.2895 30.0476 27.8658C29.1708 29.4422 29.3099 31.371 29.5706 33.1559C30.0429 36.3817 30.8296 39.5536 31.9196 42.6263C33.2873 41.4219 33.2033 39.2285 33.0361 37.3743C32.8624 35.4481 32.9665 33.0963 34.6509 32.1457C36.2783 31.2274 38.2535 32.2356 40.0479 32.7571C41.4666 33.1589 42.9555 33.2483 44.4121 33.0192C45.8687 32.7901 47.2583 32.2479 48.4852 31.4299C49.4199 30.7975 50.2521 30.0053 51.2597 29.497C52.2673 28.9887 53.5496 28.8122 54.4877 29.4396C55.3445 30.0125 55.6928 31.0812 55.9844 32.0697C56.6753 34.4126 57.3661 36.7555 58.057 39.0984C59.0712 38.1272 59.8681 36.952 60.395 35.6504C60.922 34.3487 61.167 32.9501 61.1141 31.5468Z" fill="#2F2E41"/>
</svg>
