<svg width="105" height="105" viewBox="0 0 105 105" fill="none" xmlns="http://www.w3.org/2000/svg">
<rect width="105" height="105" fill="#F5F5F5"/>
<g id="Testing Frame">
<rect width="1512" height="1872" transform="translate(-127 -236)" fill="white"/>
<rect id="Rectangle 5" x="19" y="35" width="1216" height="40" fill="#DFF6FF"/>
<rect id="Rectangle 6" x="19" y="35" width="842" height="40" fill="#1499C3"/>
<g id="Group 7">
<path id="Vector" d="M52.1767 104.354C80.9932 104.354 104.353 80.9932 104.353 52.1768C104.353 23.3603 80.9932 0 52.1767 0C23.3603 0 0 23.3603 0 52.1768C0 80.9932 23.3603 104.354 52.1767 104.354Z" fill="#1499C3"/>
<path id="ab6171fa-7d69-4734-b81c-8dff60f9761b" d="M51.0281 57.5887C59.7703 57.5887 66.8572 50.5018 66.8572 41.7596C66.8572 33.0174 59.7703 25.9304 51.0281 25.9304C42.2859 25.9304 35.1989 33.0174 35.1989 41.7596C35.1989 50.5018 42.2859 57.5887 51.0281 57.5887Z" fill="#9E616A"/>
<path id="Vector_2" d="M90.6492 86.6265C81.6097 96.912 68.888 103.23 55.2305 104.217C41.5729 105.204 28.0749 100.781 17.6505 91.9021L22.1258 79.4145C23.1371 77.1965 24.7331 75.2957 26.7426 73.9157C28.7521 72.5358 31.0993 71.7289 33.5325 71.5815L36.3796 71.4068L43.1685 65.5516C43.1685 65.5516 61.4607 64.8985 61.1893 64.5857L72.2695 71.2504L72.2603 71.2044L76.6161 71.4712C79.0495 71.6179 81.3969 72.4246 83.4065 73.8045C85.4161 75.1845 87.012 77.0857 88.0228 79.3041L90.6492 86.6265Z" fill="#093F58"/>
<path id="Vector_3" d="M36.6456 49.0778C36.6144 48.9912 36.5861 48.9036 36.5554 48.8169C36.4944 48.8706 36.436 48.926 36.3699 48.9761L36.6456 49.0778Z" fill="#2F2E41"/>
<path id="Vector_4" d="M69.9897 36.1283C69.9085 34.5221 69.4878 32.9514 68.7553 31.5197C68.0229 30.088 66.9952 28.8277 65.7402 27.8221C64.8177 27.0925 63.7506 26.4764 63.1398 25.4713C62.7915 24.7598 62.4962 24.0235 62.2564 23.2684C61.0413 20.3761 57.5782 18.8389 54.4717 19.2768C51.3652 19.7148 48.6768 21.8044 46.8659 24.3663C45.9737 23.9387 44.9777 23.7759 43.9958 23.8969C43.0138 24.0179 42.0872 24.4178 41.3254 25.0491C40.5637 25.6805 39.9989 26.5169 39.6978 27.4593C39.3967 28.4017 39.372 29.4107 39.6265 30.3667C38.0178 29.0708 35.4156 30.1074 34.4114 31.9127C33.4073 33.7179 33.5666 35.9269 33.8652 37.971C34.406 41.6653 35.307 45.2979 36.5553 48.8168C38.1216 47.4374 38.0254 44.9255 37.8339 42.8021C37.635 40.596 37.7542 37.9027 39.6833 36.8141C41.547 35.7624 43.8091 36.917 45.8641 37.5143C47.4888 37.9744 49.194 38.0768 50.8621 37.8144C52.5303 37.552 54.1217 36.9311 55.5267 35.9944C56.5972 35.27 57.5502 34.3629 58.7042 33.7807C59.8582 33.1986 61.3267 32.9965 62.401 33.715C63.3822 34.3711 63.7812 35.595 64.115 36.7271C64.9063 39.4103 65.6975 42.0934 66.4887 44.7766C67.6502 43.6643 68.5628 42.3184 69.1663 40.8277C69.7697 39.337 70.0504 37.7353 69.9897 36.1283Z" fill="#2F2E41"/>
</g>
<g id="Rectangle 8" opacity="0.1" filter="url(#filter0_f_0_1)">
<rect x="153" y="240" width="956" height="590" rx="20" fill="#093F58"/>
</g>
</g>
<defs>
<filter id="filter0_f_0_1" x="3" y="90" width="1256" height="890" filterUnits="userSpaceOnUse" color-interpolation-filters="sRGB">
<feFlood flood-opacity="0" result="BackgroundImageFix"/>
<feBlend mode="normal" in="SourceGraphic" in2="BackgroundImageFix" result="shape"/>
<feGaussianBlur stdDeviation="75" result="effect1_foregroundBlur_0_1"/>
</filter>
</defs>
</svg>
