<svg width="92" height="92" viewBox="0 0 92 92" fill="none" xmlns="http://www.w3.org/2000/svg">
<rect width="92" height="92" fill="#FFFFFF"/>
<path d="M45.56 91.12C70.7221 91.12 91.12 70.7221 91.12 45.56C91.12 20.3979 70.7221 0 45.56 0C20.3979 0 0 20.3979 0 45.56C0 70.7221 20.3979 91.12 45.56 91.12Z" fill="#DFF6FF"/>
<path d="M47.4168 50.2072C55.6217 50.2072 62.2731 43.5558 62.2731 35.3509C62.2731 27.146 55.6217 20.4946 47.4168 20.4946C39.2119 20.4946 32.5605 27.146 32.5605 35.3509C32.5605 43.5558 39.2119 50.2072 47.4168 50.2072Z" fill="#FFB8B8"/>
<path d="M60.4973 25.5367C60.4973 25.5367 64.3654 18.1421 55.8556 17.4699C55.8556 17.4699 48.6008 10.8889 41.2063 16.2668C41.2063 16.2668 37.1729 16.2668 34.9673 20.831C34.9673 20.831 31.795 19.6279 31.0979 22.8477C31.0979 22.8477 28.7766 29.5701 31.0979 35.6202C33.4191 41.6703 34.1901 42.3425 34.1901 42.3425C34.1901 42.3425 32.5615 34.8347 41.8458 34.1625C51.13 33.4902 59.6475 27.674 60.4212 35.0686C61.1949 42.4631 62.0455 39.1227 62.0455 39.1227C62.0455 39.1227 69.3943 28.5617 60.4973 25.5367Z" fill="#2F2E41"/>
<path d="M79.5714 75.8544C71.6782 84.8355 60.5699 90.3525 48.6443 91.2144C36.7187 92.0763 24.9324 88.2139 15.83 80.461L19.7377 69.5569C20.6208 67.6202 22.0144 65.9604 23.7691 64.7555C25.5238 63.5506 27.5733 62.846 29.698 62.7173L32.184 62.5647L38.1119 57.452C38.1119 57.452 54.0844 56.8817 53.8475 56.6086L63.5225 62.4281L63.5145 62.388L67.3179 62.6209C69.4427 62.7491 71.4925 63.4534 73.2472 64.6584C75.002 65.8634 76.3955 67.5235 77.2781 69.4605L79.5714 75.8544Z" fill="#06283D"/>
</svg>
