<svg width="105" height="105" viewBox="0 0 105 105" fill="none" xmlns="http://www.w3.org/2000/svg">
<rect width="105" height="105" fill="#F5F5F5"/>
<g id="Testing Frame">
<rect width="1512" height="1872" transform="translate(-1281 -235)" fill="white"/>
<rect id="Rectangle 5" x="-1135" y="36" width="1216" height="40" fill="#DFF6FF"/>
<g id="Rectangle 8" opacity="0.1" filter="url(#filter0_f_0_1)">
<rect x="-1001" y="241" width="956" height="590" rx="20" fill="#093F58"/>
</g>
<g id="Group 8">
<path id="Vector" d="M52.1768 104.353C80.9932 104.353 104.354 80.9932 104.354 52.1768C104.354 23.3603 80.9932 0 52.1768 0C23.3603 0 0 23.3603 0 52.1768C0 80.9932 23.3603 104.353 52.1768 104.353Z" fill="#DFF6FF"/>
<path id="Vector_2" d="M54.3033 57.499C63.6999 57.499 71.3172 49.8816 71.3172 40.4851C71.3172 31.0886 63.6999 23.4712 54.3033 23.4712C44.9068 23.4712 37.2894 31.0886 37.2894 40.4851C37.2894 49.8816 44.9068 57.499 54.3033 57.499Z" fill="#FFB8B8"/>
<path id="bf427902-b9bf-4946-b5d7-5c1c7e04535e" d="M69.2835 29.2454C69.2835 29.2454 73.7134 20.7769 63.9676 20.007C63.9676 20.007 55.6592 12.4703 47.1908 18.6292C47.1908 18.6292 42.5716 18.6292 40.0457 23.8563C40.0457 23.8563 36.4127 22.4785 35.6143 26.1659C35.6143 26.1659 32.956 33.8646 35.6143 40.7933C38.2727 47.7221 39.1557 48.492 39.1557 48.492C39.1557 48.492 37.2905 39.8938 47.9231 39.1239C58.5558 38.354 68.3102 31.6931 69.1963 40.1616C70.0824 48.6301 71.0565 44.8045 71.0565 44.8045C71.0565 44.8045 79.4726 32.7098 69.2835 29.2454Z" fill="#2F2E41"/>
<path id="Vector_3" d="M91.1277 86.8709C82.0882 97.1564 69.3666 103.475 55.709 104.462C42.0514 105.449 28.5534 101.025 18.129 92.1465L22.6043 79.6589C23.6156 77.4409 25.2116 75.54 27.2211 74.1601C29.2306 72.7802 31.5778 71.9733 34.0111 71.8259L36.8582 71.6511L43.647 65.796C43.647 65.796 61.9392 65.1428 61.6679 64.8301L72.7481 71.4948L72.7388 71.4488L77.0946 71.7155C79.528 71.8623 81.8754 72.669 83.8851 74.0489C85.8947 75.4289 87.4905 77.3301 88.5013 79.5485L91.1277 86.8709Z" fill="#06283D"/>
</g>
<g id="Group 10">
<path id="Vector_4" d="M52.1768 104.353C80.9932 104.353 104.354 80.9932 104.354 52.1768C104.354 23.3603 80.9932 0 52.1768 0C23.3603 0 0 23.3603 0 52.1768C0 80.9932 23.3603 104.353 52.1768 104.353Z" fill="#DFF6FF"/>
<path id="Vector_5" d="M54.3033 57.499C63.6999 57.499 71.3172 49.8816 71.3172 40.4851C71.3172 31.0886 63.6999 23.4712 54.3033 23.4712C44.9068 23.4712 37.2894 31.0886 37.2894 40.4851C37.2894 49.8816 44.9068 57.499 54.3033 57.499Z" fill="#FFB8B8"/>
<path id="bf427902-b9bf-4946-b5d7-5c1c7e04535e_2" d="M69.2835 29.2454C69.2835 29.2454 73.7134 20.7769 63.9676 20.007C63.9676 20.007 55.6592 12.4703 47.1908 18.6292C47.1908 18.6292 42.5716 18.6292 40.0457 23.8563C40.0457 23.8563 36.4127 22.4785 35.6143 26.1659C35.6143 26.1659 32.956 33.8646 35.6143 40.7933C38.2727 47.7221 39.1557 48.492 39.1557 48.492C39.1557 48.492 37.2905 39.8938 47.9231 39.1239C58.5558 38.354 68.3102 31.6931 69.1963 40.1616C70.0824 48.6301 71.0565 44.8045 71.0565 44.8045C71.0565 44.8045 79.4726 32.7098 69.2835 29.2454Z" fill="#2F2E41"/>
<path id="Vector_6" d="M91.1277 86.8709C82.0882 97.1564 69.3666 103.475 55.709 104.462C42.0514 105.449 28.5534 101.025 18.129 92.1465L22.6043 79.6589C23.6156 77.4409 25.2116 75.54 27.2211 74.1601C29.2306 72.7802 31.5778 71.9733 34.0111 71.8259L36.8582 71.6511L43.647 65.796C43.647 65.796 61.9392 65.1428 61.6679 64.8301L72.7481 71.4948L72.7388 71.4488L77.0946 71.7155C79.528 71.8623 81.8754 72.669 83.8851 74.0489C85.8947 75.4289 87.4905 77.3301 88.5013 79.5485L91.1277 86.8709Z" fill="#06283D"/>
</g>
</g>
<defs>
<filter id="filter0_f_0_1" x="-1151" y="91" width="1256" height="890" filterUnits="userSpaceOnUse" color-interpolation-filters="sRGB">
<feFlood flood-opacity="0" result="BackgroundImageFix"/>
<feBlend mode="normal" in="SourceGraphic" in2="BackgroundImageFix" result="shape"/>
<feGaussianBlur stdDeviation="75" result="effect1_foregroundBlur_0_1"/>
</filter>
</defs>
</svg>
