<svg width="622" height="828" viewBox="0 0 622 828" fill="none" xmlns="http://www.w3.org/2000/svg">
<g opacity="0.3">
<path d="M87.8422 203.741C85.9954 200.793 83.2581 198.509 80.0268 197.219L53.3707 186.359C51.1529 185.462 49.2777 183.883 48.0158 181.85C46.7539 179.818 46.1707 177.437 46.3503 175.051L48.4411 146.344C48.6933 142.881 47.843 139.428 46.0121 136.479C44.1813 133.53 41.4638 131.236 38.2491 129.926C35.0344 128.616 31.4875 128.357 28.1168 129.187C24.7461 130.016 21.7245 131.892 19.4851 134.544L0.9199 156.54C-0.619906 158.371 -2.70133 159.666 -5.02445 160.239C-7.34758 160.811 -9.79244 160.631 -12.0067 159.725L-38.6628 148.864C-41.8777 147.555 -45.4247 147.297 -48.7953 148.127C-52.166 148.957 -55.1873 150.833 -57.4264 153.486C-59.6654 156.139 -61.0071 159.432 -61.2593 162.894C-61.5115 166.356 -60.6612 169.81 -58.8303 172.759L-43.6485 197.213C-42.3831 199.243 -41.7948 201.622 -41.9686 204.008C-42.1423 206.394 -43.0691 208.663 -44.6153 210.488L-63.1804 232.484C-65.42 235.136 -66.7623 238.43 -67.0148 241.893C-67.2672 245.355 -66.4169 248.809 -64.5857 251.758C-62.7545 254.708 -60.0364 257.002 -56.8212 258.312C-53.6059 259.622 -50.0585 259.88 -46.6876 259.049L-18.7397 252.166C-16.4178 251.59 -13.973 251.766 -11.7576 252.669C-9.54224 253.572 -7.67064 255.155 -6.41255 257.189L8.76931 281.643C10.6004 284.592 13.3181 286.886 16.5329 288.196C19.7478 289.506 23.2947 289.764 26.6655 288.934C30.0362 288.104 33.0577 286.229 35.2969 283.576C37.5361 280.923 38.8781 277.63 39.1306 274.168L41.2214 245.46C41.3908 243.073 42.3136 240.802 43.8569 238.974C45.4002 237.145 47.4843 235.854 49.8087 235.286L77.7573 228.405C81.1459 227.61 84.1881 225.744 86.4329 223.084C88.6777 220.424 90.0057 217.112 90.2199 213.638C90.4977 210.17 89.665 206.704 87.8422 203.741Z" fill="#47B5FF"/>
<path d="M212.308 404.22C210.461 401.272 207.724 398.989 204.493 397.7L177.837 386.839C175.621 385.939 173.748 384.359 172.486 382.327C171.225 380.295 170.64 377.915 170.816 375.53L172.907 346.823C173.159 343.361 172.309 339.907 170.478 336.958C168.647 334.009 165.929 331.715 162.715 330.405C159.5 329.095 155.953 328.837 152.582 329.666C149.212 330.496 146.19 332.372 143.951 335.024L125.385 357.019C123.846 358.851 121.764 360.146 119.441 360.718C117.118 361.29 114.673 361.11 112.459 360.204L85.8027 349.343C82.5877 348.034 79.0408 347.776 75.6701 348.606C72.2995 349.436 69.2781 351.312 67.0391 353.965C64.8001 356.618 63.4583 359.911 63.2061 363.373C62.9539 366.836 63.8042 370.289 65.6351 373.238L80.817 397.692C82.0824 399.722 82.6707 402.101 82.497 404.487C82.3232 406.873 81.3964 409.142 79.8503 410.967L61.2851 432.963C59.0455 435.616 57.7032 438.909 57.4507 442.372C57.1983 445.835 58.0486 449.288 59.8798 452.238C61.711 455.187 64.4291 457.481 67.6443 458.791C70.8596 460.101 74.4069 460.359 77.7779 459.528L105.726 452.647C108.048 452.07 110.493 452.246 112.708 453.149C114.923 454.052 116.795 455.634 118.053 457.669L133.235 482.122C135.066 485.072 137.784 487.365 140.998 488.675C144.213 489.985 147.76 490.243 151.131 489.413C154.502 488.583 157.523 486.708 159.762 484.055C162.002 481.402 163.344 478.109 163.596 474.647L165.687 445.939C165.857 443.553 166.78 441.282 168.323 439.453C169.867 437.625 171.951 436.334 174.275 435.767L202.223 428.884C205.611 428.089 208.653 426.223 210.898 423.563C213.143 420.904 214.471 417.591 214.686 414.118C214.964 410.65 214.131 407.183 212.308 404.22Z" fill="#47B5FF"/>
<path d="M294.72 535.16C292.692 531.923 289.687 529.414 286.14 527.996C282.614 526.515 278.706 526.208 274.993 527.122C271.279 528.036 267.96 530.122 265.525 533.071L246.961 555.068C245.641 556.637 243.858 557.746 241.867 558.236C239.876 558.726 237.781 558.572 235.884 557.795L209.226 546.935C205.695 545.496 201.799 545.212 198.096 546.124C194.393 547.036 191.074 549.096 188.615 552.01C186.155 554.924 184.681 558.542 184.404 562.346C184.127 566.149 185.062 569.942 187.073 573.182L202.255 597.636C203.34 599.376 203.844 601.415 203.695 603.46C203.546 605.505 202.751 607.449 201.425 609.014L182.861 631.01C180.402 633.924 178.928 637.542 178.651 641.345C178.374 645.148 179.308 648.941 181.319 652.181C183.331 655.421 186.316 657.94 189.847 659.379C193.379 660.818 197.275 661.102 200.977 660.19L228.925 653.308C230.915 652.814 233.01 652.964 234.909 653.738C236.808 654.512 238.412 655.868 239.491 657.612L254.673 682.066C256.684 685.306 259.669 687.825 263.201 689.264C266.732 690.703 270.628 690.986 274.331 690.075C278.033 689.163 281.352 687.103 283.812 684.189C286.272 681.275 287.746 677.657 288.023 673.854L290.115 645.146C290.26 643.101 291.05 641.154 292.373 639.587C293.695 638.02 295.481 636.914 297.473 636.427L325.421 629.546C329.123 628.634 332.442 626.573 334.902 623.659C337.361 620.745 338.835 617.127 339.112 613.324C339.389 609.521 338.455 605.728 336.444 602.488C334.432 599.248 331.447 596.729 327.916 595.29L301.26 584.43C299.36 583.66 297.753 582.306 296.672 580.564C295.59 578.822 295.09 576.782 295.243 574.737L297.333 546.03C297.638 542.221 296.723 538.414 294.72 535.16ZM289.573 584.972C291.585 588.212 294.574 590.73 298.108 592.164L324.764 603.025C326.662 603.797 328.267 605.152 329.349 606.893C330.43 608.634 330.932 610.673 330.784 612.717C330.635 614.761 329.842 616.706 328.52 618.272C327.198 619.838 325.414 620.946 323.424 621.436L295.476 628.318C291.77 629.223 288.447 631.282 285.987 634.197C283.526 637.113 282.055 640.734 281.785 644.54L279.692 673.247C279.543 675.291 278.751 677.236 277.429 678.802C276.107 680.368 274.324 681.475 272.334 681.965C270.344 682.455 268.25 682.303 266.352 681.53C264.454 680.756 262.849 679.402 261.768 677.661L246.586 653.207C244.58 649.962 241.595 647.438 238.063 645.999C234.53 644.559 230.631 644.279 226.929 645.198L198.98 652.079C196.99 652.57 194.896 652.417 192.998 651.644C191.1 650.871 189.495 649.516 188.414 647.775C187.333 646.034 186.831 643.995 186.98 641.951C187.129 639.907 187.921 637.962 189.243 636.396L207.808 614.4C210.274 611.49 211.753 607.872 212.03 604.067C212.307 600.262 211.369 596.468 209.351 593.231L194.169 568.776C193.087 567.035 192.585 564.997 192.734 562.953C192.883 560.909 193.675 558.964 194.997 557.398C196.319 555.832 198.102 554.724 200.092 554.234C202.082 553.744 204.177 553.896 206.075 554.67L232.732 565.53C236.263 566.975 240.161 567.263 243.865 566.351C247.57 565.438 250.888 563.374 253.344 560.454L271.908 538.458C273.23 536.892 275.014 535.784 277.004 535.294C278.994 534.804 281.088 534.957 282.986 535.73C284.884 536.504 286.488 537.858 287.569 539.599C288.65 541.341 289.152 543.379 289.003 545.424L286.913 574.132C286.63 577.936 287.562 581.731 289.573 584.972Z" fill="#1499C3"/>
<path d="M557.625 594.927C555.597 591.69 552.592 589.181 549.044 587.763C545.519 586.282 541.61 585.975 537.897 586.889C534.184 587.803 530.865 589.889 528.43 592.838L509.866 614.835C508.546 616.404 506.763 617.513 504.772 618.003C502.781 618.493 500.686 618.339 498.789 617.562L472.131 606.702C468.6 605.263 464.703 604.979 461.001 605.891C457.298 606.803 453.979 608.863 451.519 611.777C449.06 614.692 447.586 618.309 447.309 622.113C447.032 625.916 447.966 629.709 449.978 632.949L465.16 657.403C466.245 659.143 466.749 661.182 466.6 663.227C466.45 665.272 465.656 667.217 464.33 668.781L445.766 690.777C443.307 693.691 441.833 697.309 441.556 701.112C441.279 704.915 442.213 708.708 444.224 711.948C446.235 715.188 449.221 717.707 452.752 719.146C456.283 720.585 460.179 720.869 463.882 719.957L491.83 713.075C493.82 712.581 495.915 712.732 497.814 713.505C499.713 714.279 501.317 715.635 502.395 717.379L517.578 741.833C519.589 745.073 522.574 747.592 526.106 749.031C529.637 750.47 533.533 750.753 537.236 749.842C540.938 748.93 544.257 746.87 546.717 743.956C549.176 741.042 550.65 737.425 550.928 733.621L553.02 704.913C553.164 702.868 553.955 700.921 555.277 699.354C556.6 697.787 558.386 696.681 560.377 696.194L588.326 689.313C592.028 688.401 595.347 686.341 597.807 683.427C600.266 680.513 601.74 676.895 602.017 673.091C602.294 669.288 601.36 665.495 599.348 662.255C597.337 659.016 594.352 656.496 590.821 655.057L564.165 644.197C562.265 643.427 560.658 642.074 559.577 640.332C558.495 638.589 557.995 636.549 558.148 634.504L560.238 605.797C560.543 601.988 559.627 598.181 557.625 594.927ZM552.478 644.739C554.49 647.979 557.479 650.498 561.013 651.931L587.669 662.792C589.567 663.565 591.172 664.919 592.254 666.66C593.335 668.401 593.837 670.44 593.688 672.484C593.54 674.528 592.747 676.473 591.425 678.039C590.103 679.606 588.319 680.713 586.329 681.203L558.381 688.085C554.675 688.99 551.352 691.049 548.891 693.964C546.431 696.88 544.96 700.501 544.69 704.307L542.597 733.014C542.448 735.058 541.656 737.003 540.334 738.569C539.012 740.135 537.228 741.242 535.239 741.732C533.249 742.222 531.155 742.07 529.257 741.297C527.359 740.523 525.754 739.169 524.673 737.428L509.491 712.974C507.485 709.729 504.5 707.205 500.967 705.766C497.434 704.327 493.536 704.046 489.833 704.965L461.885 711.847C459.895 712.337 457.801 712.184 455.903 711.411C454.005 710.638 452.4 709.283 451.319 707.542C450.238 705.801 449.736 703.762 449.885 701.718C450.034 699.674 450.826 697.729 452.148 696.163L470.713 674.167C473.179 671.257 474.657 667.639 474.935 663.834C475.212 660.029 474.274 656.235 472.256 652.998L457.073 628.544C455.992 626.802 455.49 624.764 455.639 622.72C455.788 620.676 456.58 618.731 457.902 617.165C459.224 615.599 461.007 614.491 462.997 614.001C464.987 613.511 467.081 613.663 468.979 614.437L495.637 625.297C499.168 626.742 503.066 627.03 506.77 626.118C510.474 625.206 513.793 623.141 516.249 620.221L534.813 598.225C536.135 596.659 537.919 595.551 539.909 595.061C541.899 594.571 543.993 594.724 545.891 595.497C547.789 596.271 549.393 597.625 550.474 599.366C551.555 601.108 552.057 603.147 551.908 605.191L549.818 633.899C549.535 637.703 550.467 641.498 552.478 644.739Z" fill="#1499C3"/>
</g>
</svg>
